<?xml version="1.0" encoding="UTF-8" standalone="no" ?>
<!DOCTYPE svg PUBLIC "-//W3C//DTD SVG 1.1//EN" "http://www.w3.org/Graphics/SVG/1.1/DTD/svg11.dtd">
<svg xmlns="http://www.w3.org/2000/svg" xmlns:xlink="http://www.w3.org/1999/xlink" version="1.1" width="538.2412109375" height="174.49983999999998" xml:space="preserve">
<desc>Created with Fabric.js 1.6.0-rc.1</desc>
<defs></defs>
<g style="stroke: none; stroke-width: 1; stroke-dasharray: none; stroke-linecap: butt; stroke-linejoin: miter; stroke-miterlimit: 10; fill: none; fill-rule: nonzero; opacity: 1;" transform="translate(10 10) scale(0.26 0.26)" >
  <path d="M 512 256 c 0 141.385 -114.596 256 -256.033 256 C 114.599 512 0 397.385 0 256 C 0 114.612 114.599 0 255.967 0 C 397.404 0 512 114.612 512 256 z" style="stroke: none; stroke-width: 1; stroke-dasharray: none; stroke-linecap: butt; stroke-linejoin: miter; stroke-miterlimit: 10; fill: #3E4959; fill-rule: nonzero; opacity: 1;" transform=" matrix(1 0 0 1 0 0) " stroke-linecap="round" />
  <path d="M 353.924 119.762 H 129.159 v 266.689 c 0 19.132 15.568 34.71 34.707 34.71 h 218.977 V 148.678 C 366.863 148.678 353.924 135.736 353.924 119.762 z" style="stroke: none; stroke-width: 1; stroke-dasharray: none; stroke-linecap: butt; stroke-linejoin: miter; stroke-miterlimit: 10; fill: #02a5ab; fill-rule: nonzero; opacity: 1;" transform=" matrix(1 0 0 1 0 0) " stroke-linecap="round" />
  <path d="M 129.159 119.762 v 266.689 c 0 19.132 15.568 34.71 34.707 34.71 v -301.4 H 129.159 z" style="stroke: none; stroke-width: 1; stroke-dasharray: none; stroke-linecap: butt; stroke-linejoin: miter; stroke-miterlimit: 10; fill: #16C6CC; fill-rule: nonzero; opacity: 1;" transform=" matrix(1 0 0 1 0 0) " stroke-linecap="round" />
  <path d="M 359.698 119.762 c 0 -12.783 10.366 -23.142 23.146 -23.142 v -5.781 H 163.863 c -15.984 0 -28.923 12.935 -28.923 28.923 c 0 15.968 12.939 28.916 28.923 28.916 h 218.977 v -5.781 C 370.06 142.898 359.698 132.539 359.698 119.762 z" style="stroke: none; stroke-width: 1; stroke-dasharray: none; stroke-linecap: butt; stroke-linejoin: miter; stroke-miterlimit: 10; fill: #FFFFFF; fill-rule: nonzero; opacity: 1;" transform=" matrix(1 0 0 1 0 0) " stroke-linecap="round" />
  <path d="M 382.841 154.465 H 163.863 c -19.136 0 -34.71 -15.568 -34.71 -34.704 s 15.575 -34.707 34.71 -34.707 h 218.977 v 11.568 H 163.863 c -12.757 0 -23.142 10.382 -23.142 23.139 c 0 12.754 10.385 23.136 23.142 23.136 h 218.977 V 154.465 z" style="stroke: none; stroke-width: 1; stroke-dasharray: none; stroke-linecap: butt; stroke-linejoin: miter; stroke-miterlimit: 10; fill: #06B2B8; fill-rule: nonzero; opacity: 1;" transform=" matrix(1 0 0 1 0 0) " stroke-linecap="round" />
  <rect x="249.39" y="258.87" rx="0" ry="0" width="47.93" height="8.27" style="stroke: none; stroke-width: 1; stroke-dasharray: none; stroke-linecap: butt; stroke-linejoin: miter; stroke-miterlimit: 10; fill: #06B2B8; fill-rule: nonzero; opacity: 1;" transform=" matrix(1 0 0 1 0 0) "/>
  <rect x="225.41" y="275.42" rx="0" ry="0" width="95.86" height="8.26" style="stroke: none; stroke-width: 1; stroke-dasharray: none; stroke-linecap: butt; stroke-linejoin: miter; stroke-miterlimit: 10; fill: #FFFFFF; fill-rule: nonzero; opacity: 1;" transform=" matrix(1 0 0 1 0 0) "/>
  <rect x="225.41" y="291.94" rx="0" ry="0" width="95.86" height="8.26" style="stroke: none; stroke-width: 1; stroke-dasharray: none; stroke-linecap: butt; stroke-linejoin: miter; stroke-miterlimit: 10; fill: #FFFFFF; fill-rule: nonzero; opacity: 1;" transform=" matrix(1 0 0 1 0 0) "/>
  <rect x="225.41" y="308.49" rx="0" ry="0" width="95.86" height="8.27" style="stroke: none; stroke-width: 1; stroke-dasharray: none; stroke-linecap: butt; stroke-linejoin: miter; stroke-miterlimit: 10; fill: #FFFFFF; fill-rule: nonzero; opacity: 1;" transform=" matrix(1 0 0 1 0 0) "/>
  <path d="M 329.124 392.238 h -111.55 v -4.129 c 0 -11.39 -9.266 -20.658 -20.652 -20.658 h -4.132 V 208.179 h 4.132 c 11.386 0 20.652 -9.272 20.652 -20.665 v -4.132 h 111.55 v 4.132 c 0 11.393 9.269 20.665 20.662 20.665 h 4.132 v 159.272 h -4.132 c -11.393 0 -20.662 9.269 -20.662 20.658 L 329.124 392.238 L 329.124 392.238 z M 225.544 383.974 h 95.605 c 1.82 -12.645 11.852 -22.673 24.5 -24.49 V 216.15 c -12.648 -1.82 -22.68 -11.852 -24.5 -24.5 h -95.605 c -1.817 12.648 -11.845 22.68 -24.49 24.5 v 143.337 C 213.699 361.3 223.727 371.329 225.544 383.974 z" style="stroke: none; stroke-width: 1; stroke-dasharray: none; stroke-linecap: butt; stroke-linejoin: miter; stroke-miterlimit: 10; fill: #FFFFFF; fill-rule: nonzero; opacity: 1;" transform=" matrix(1 0 0 1 0 0) " stroke-linecap="round" />
  <path d="M 234.704 135.175 c -4.258 0 -7.713 3.458 -7.713 7.723 h 15.423 C 242.414 138.633 238.969 135.175 234.704 135.175 z" style="stroke: none; stroke-width: 1; stroke-dasharray: none; stroke-linecap: butt; stroke-linejoin: miter; stroke-miterlimit: 10; fill: #F15424; fill-rule: nonzero; opacity: 1;" transform=" matrix(1 0 0 1 0 0) " stroke-linecap="round" />
  <path d="M 200.496 135.175 c -4.261 0 -7.713 3.458 -7.713 7.723 v 90.495 l 17.104 -17.104 l 17.104 17.104 v -90.495 c 0 -4.264 3.455 -7.723 7.716 -7.723 L 200.496 135.175 L 200.496 135.175 z" style="stroke: none; stroke-width: 1; stroke-dasharray: none; stroke-linecap: butt; stroke-linejoin: miter; stroke-miterlimit: 10; fill: #FF6D3B; fill-rule: nonzero; opacity: 1;" transform=" matrix(1 0 0 1 0 0) " stroke-linecap="round" />
</g>
  <g transform="translate(344.56 90.69) scale(2.87 2.87)">
   <text font-family="Kronika" font-size="40" font-weight="normal" style="stroke: none; stroke-width: 1; stroke-dasharray: none; stroke-linecap: butt; stroke-linejoin: miter; stroke-miterlimit: 10; fill: #290029; fill-rule: nonzero; opacity: 1;" ><tspan x="-64.5" y="8.98" style="stroke: none; stroke-width: 0; stroke-dasharray: none; stroke-linecap: butt; stroke-linejoin: miter; stroke-miterlimit: 4; fill: #290029; fill-rule: ; opacity: 1;">B</tspan><tspan x="-38.53" y="8.98" style="stroke: none; stroke-width: 0; stroke-dasharray: none; stroke-linecap: butt; stroke-linejoin: miter; stroke-miterlimit: 4; fill: #290029; fill-rule: ; opacity: 1;">o</tspan><tspan x="-15.32" y="8.98" style="stroke: none; stroke-width: 0; stroke-dasharray: none; stroke-linecap: butt; stroke-linejoin: miter; stroke-miterlimit: 4; fill: #290029; fill-rule: ; opacity: 1;">o</tspan><tspan x="7.88" y="8.98" style="stroke: none; stroke-width: 0; stroke-dasharray: none; stroke-linecap: butt; stroke-linejoin: miter; stroke-miterlimit: 4; fill: #290029; fill-rule: ; opacity: 1;">k</tspan><tspan x="31.63" y="8.98" style="stroke: none; stroke-width: 0; stroke-dasharray: none; stroke-linecap: butt; stroke-linejoin: miter; stroke-miterlimit: 4; fill: #290029; fill-rule: ; opacity: 1;">X</tspan></text>
 </g>
</svg>